<svg xmlns="http://www.w3.org/2000/svg" version="1.1" xmlns:xlink="http://www.w3.org/1999/xlink" xmlns:svgjs="http://svgjs.dev/svgjs" width="1000" height="1125" viewBox="0 0 1000 1125"><g transform="matrix(1,0,0,1,1.7053025658242404e-13,0)"><svg viewBox="0 0 320 360" data-background-color="#ffffff" preserveAspectRatio="xMidYMid meet" height="1125" width="1000" xmlns="http://www.w3.org/2000/svg" xmlns:xlink="http://www.w3.org/1999/xlink"><g id="tight-bounds" transform="matrix(1,0,0,1,-5.684341886080802e-14,0)"><svg viewBox="0 0 320 360" height="360" width="320"><g><svg></svg></g><g><svg viewBox="0 0 320 360" height="360" width="320"><g><path xmlns="http://www.w3.org/2000/svg" d="M85.508 32.884c0-1.117 0.558-2.233 1.675-2.233 1.117 0 2.233 0.558 2.234 2.233 0.558 0 1.675 0 2.233-0.558 2.233 0 4.467-0.558 6.141 0 1.675 0.558 2.792 0.558 4.467 1.117 1.675 0.558 2.792 0 3.908-0.559 2.233-0.558 3.908-1.675 6.141-2.233 1.117-0.558 1.675-0.558 2.792-0.558 1.117-0.558 2.233-0.558 3.908-1.117 2.792-0.558 5.583-1.117 7.817-2.233 2.233-1.117 4.467-1.117 6.699-1.675 1.117 0 1.675-0.558 2.792-1.117 0.558 0 0.558-0.558 1.116-1.116 1.117-0.558 1.675-1.117 2.792-0.559 0.558 0.558 1.675 0.558 2.233 0h0.559c3.35 0 6.7-0.558 10.608 0 0.558 0 1.117 0 1.116 0 1.675-1.117 3.908-1.117 6.142-1.116 0.558 0 1.675 0 2.233 0h0.558c2.233 0 4.467 0 6.142 0.558 1.675 0 2.792 0.558 4.466 1.117 1.675 0 2.792 0 4.467 0.558 1.117 0 2.233 0 3.35 0 0.558 0 1.117 0 1.116 0 2.233 0.558 4.467 0.558 6.7 0.558 1.675 0.558 3.35 1.117 5.583 1.117 0.558 0 1.117 0 1.675 0 0.558 0 1.117 0.558 1.675 0.558l0.558 0.559c2.233 0 3.908 1.117 6.142 1.116 0.558 0 1.675 0 2.233 0.559 1.675 1.117 3.908 1.675 6.141 1.675 1.117 0 1.675 0.558 2.234 1.116 1.675 0.558 2.792 1.117 4.466 1.675 1.117 0.558 2.233 0 3.35 0.558 1.675 0.558 3.908 1.117 5.583 2.792 1.117 1.117 2.233 1.117 3.908 2.233 0.558 0 1.117 0.558 1.675 1.117 1.675 1.117 3.35 2.233 5.025 2.791 0.558 0 1.117 0.558 1.675 0.559 1.675 1.117 3.35 2.792 5.583 3.908 1.117 0.558 1.675 1.117 2.792 1.675h0.558c1.675 1.675 3.908 2.792 5.583 4.466 1.675 1.675 2.792 2.792 5.025 3.909 0 0 0 0 0 0.558 0.558 1.117 1.117 1.675 2.233 2.233 1.117 0.558 1.675 1.117 2.234 1.675 1.675 1.117 3.35 2.233 4.466 3.35 0.558 0.558 1.117 1.117 2.233 2.233 0.558 0.558 1.117 1.117 1.675 1.117 2.233 0.558 3.35 2.233 5.025 3.908 1.117 1.117 2.792 2.792 3.908 3.908 0.558 0.558 1.117 1.675 1.675 2.792 1.117 3.35 2.792 6.7 4.467 9.491 0 0 0 0.558 0.558 1.117v0.558c1.117 1.117 1.675 2.792 2.792 3.908 0.558 0.558 0.558 1.117 1.116 1.675 1.117 1.675 1.675 3.908 2.792 5.583 1.675 2.792 2.792 5.583 3.908 8.375v0.558c0.558 1.117 1.117 2.233 1.675 3.908 0 1.117 1.117 2.233 1.675 3.909 0.558 2.792 2.233 5.583 2.791 8.933 0 0.558 0.558 1.117 0.559 2.233 0.558 1.675 1.117 3.35 1.675 5.025 0 0.558 0.558 1.117 1.116 1.675 1.117 1.117 1.117 2.233 1.117 3.35-0.558 2.233 0 4.467 0.558 6.699 0 0.558 0 1.117 0 2.234 0.558 2.233 1.117 5.025 1.117 7.258 0 0.558 0 1.675 0 2.233 0 1.675 0.558 3.35 1.675 5.025 0 0.558 0.558 0.558 0.558 0.558 0.558 0.558 1.117 1.675 1.675 2.233 0.558 0.558 0.558 0.558 1.117 1.117 1.117 1.117 1.675 2.233 1.675 3.908 0 0.558-0.558 1.675-0.559 2.233 0 0.558 0 1.675 0.559 2.234 0.558 0.558 0.558 1.117 0.558 1.675 0 0.558-0.558 1.117-1.117 1.116v0c-0.558 1.675-2.792 2.233-3.35 3.908-0.558 2.233-1.117 4.467-1.674 6.7-0.558 1.675-0.558 2.792-0.559 4.467 0 1.675-0.558 2.792-0.558 4.466-0.558 2.233-1.117 4.467-1.675 6.7 0 1.117-0.558 2.233-0.558 3.35 0.558 0.558 1.117 1.117 1.675 1.116 1.117 1.117 2.233 2.233 3.349 3.35 0.558 0.558 0.558 1.117 0 1.117-0.558 0.558-1.117 0.558-1.674 0.558-0.558-0.558-1.675-1.117-2.234-1.116-0.558-0.558-1.675-1.117-2.791-0.559 0 1.117-0.558 2.233-0.559 2.792-0.558 1.117-1.117 2.792-1.116 3.908-0.558 2.233-1.675 3.908-2.233 6.142-1.117 2.792-2.233 5.025-3.35 7.258-0.558 1.117-1.117 2.233-1.675 3.35v0c0 1.675-1.675 3.35-2.234 5.024-1.117 2.233-2.233 4.467-3.349 7.258-0.558 1.117-1.117 2.233-1.675 2.792-1.117 2.792-2.233 5.025-3.909 7.258-1.117 1.675-2.233 2.792-3.349 3.35-1.117 1.117-2.233 2.233-3.35 3.35-0.558 0.558-1.117 1.117-1.675 1.675-0.558 0.558-0.558 0.558-1.117 1.116-1.117 1.675-2.792 2.792-3.908 4.467-1.117 1.117-1.675 2.233-3.35 3.35-1.117 1.117-2.233 2.792-3.908 3.35-0.558 0.558-1.117 1.675-1.675 2.233-0.558 0.558-1.117 1.675-1.675 2.233 0 1.117 0.558 2.233 0.558 2.792 0 1.675-1.675 2.233-2.791 1.116-1.675-1.117-1.675-1.117-3.35 0-1.675 1.117-3.35 2.792-5.583 3.35-0.558 0-0.558 0.558-1.117 0.559-1.117 0.558-1.675 1.675-2.792 2.233-1.117 1.117-2.792 1.675-3.908 2.791-0.558 0.558-1.117 0.558-1.675 1.117-1.675 1.117-3.35 1.675-5.024 3.35-0.558 0.558-1.117 0.558-1.675 1.117 0 0.558 0 0.558 0 1.116 0 1.117-1.117 2.233-2.792 1.675-1.675-0.558-2.792 0-4.466 0-1.675 0.558-3.35 1.675-5.025 2.233-0.558 0-1.117 0.558-1.675 1.117-1.675 1.117-3.35 1.675-5.025 2.233-1.117 0-2.233 1.117-3.35 1.117-0.558 0-1.117 0.558-1.675 0.558h-0.558c-2.233 1.675-4.467 2.792-6.7 4.467-0.558 0-0.558 0.558-1.117 1.116-0.558 1.117-1.117 1.675-2.233 1.675-2.792 0-3.908 2.233-3.35 4.467 0 0.558 0.558 1.117 0.559 1.675 0.558 1.117 0 2.233-0.559 2.791-0.558 0.558-2.233 0.558-2.791-0.558-1.117-1.117-1.675-2.233-2.234-3.908-0.558-1.117-1.675-2.233-2.791-2.792-1.117-0.558-2.233-0.558-3.35 0-0.558 0-0.558 0.558-1.117 0.558-1.117 1.117-2.792 1.675-4.466 1.117-0.558 0-1.675 0-1.675 0.558-0.558 0.558-0.558 1.675 0 2.234 1.117 1.117 0.558 2.233 0.558 3.908 0 2.233-1.675 3.35-3.908 2.233-0.558-0.558-1.117-0.558-1.675-1.117-0.558 0-0.558-0.558-0.558-1.116-0.558-0.558-0.558-1.675-1.117-2.792-1.117 0.558-2.233 0.558-3.35 1.117-0.558 0-1.117 0.558-1.675 0.558-1.675 0-2.233 0-2.791-1.675-0.558-1.675-1.675-1.675-2.792-2.233-2.233-0.558-5.025-0.558-7.258-1.675h-0.558c-2.233-1.675-4.467-1.675-7.258-1.675-1.675 0-3.35 0.558-5.025 0.558-1.675 0-2.792 0.558-3.908 1.675-0.558 0.558-1.117 1.117-1.675 1.117-0.558-0.558-0.558-1.117-1.117-1.675v-0.558c0-0.558-0.558-1.117-1.116-0.559-1.117 0.558-2.233-0.558-3.35-1.116-0.558-0.558-1.675-1.675-1.675-2.792-0.558-0.558-1.117-1.117-1.675-1.116-1.117 0-2.792-0.558-3.908-0.559-0.558 0-1.117 0-1.117-0.558-0.558-0.558-1.117-0.558-2.233-0.558-0.558 0-0.558-0.558-1.117-0.559 1.117 1.117 1.675 2.233 2.233 3.35 0 0.558 0.558 0.558 0.559 1.117 0.558 1.117 0 1.675-1.675 1.675-1.117 0-1.117 0-1.675 0.558 0 1.117 0 1.675 0 2.792 0 0.558 0 1.117-1.117 1.675 0 0-0.558 0-0.558 0.558-0.558 0.558-0.558 1.117 0 1.675 1.675 1.117 2.792 1.675 4.466 2.233 1.675 0 1.675 1.117 2.234 2.233 0.558 1.117 0 1.675-0.559 2.792-1.117 1.117-2.233 2.233-3.35 3.35-1.675 0.558-2.792 2.233-4.466 2.233-1.117 0-2.233-0.558-2.792-1.675-0.558-2.792-0.558-5.025 0.559-7.816 0-0.558 0.558-1.117 0-1.675-5.025 0-5.025-1.117-5.025-1.675 0-1.117 0.558-1.675 0.558-2.792 0.558-1.117 0-1.675-1.675-2.233-0.558 0-1.117 0-1.675 0-0.558 0-0.558-0.558-1.675-0.558 1.117-0.558 1.675-0.558 2.792-1.117-0.558-2.233-1.117-3.908-2.792-5.025-0.558-0.558-1.117-1.117-1.116-2.233 0-1.675-1.117-2.792-1.675-3.908-1.117-1.675-3.35-2.233-5.025-2.233-1.675-0.558-2.792-0.558-4.467-1.117-1.675-0.558-3.35-2.233-5.024-2.792-0.558-0.558-1.117-1.117-2.234-1.674-2.233-1.117-3.908-2.792-5.583-4.467-1.117-0.558-1.675-1.675-2.791-2.233-1.117-1.117-1.675-2.233-2.792-2.792-1.117-1.117-2.233-2.233-3.908-3.35-1.675-1.117-2.792-2.792-4.467-4.466-1.117-1.675-2.792-2.792-4.466-3.908-0.558 0-1.117 0-1.675 0-0.558 0-1.117 0.558-1.675 0.558-1.675 0.558-2.792 1.675-4.467 2.233 0.558-0.558 0.558-0.558 0-1.675-0.558-0.558-1.117-1.117-1.674-1.116-1.117 0-2.233 0-3.35 0-2.233 0-4.467 0.558-6.7 0.558-1.675 0-3.908 0.558-5.583 1.117 0.558 1.117 0.558 1.675 1.116 2.791-1.117 0.558-2.233 0.558-3.35 0.558-0.558 0-1.675 0.558-2.233 1.117-0.558 0-0.558 0.558-1.116 0-1.117-0.558-2.233 0-3.35 0.558h-0.559c0 0 0-0.558 0.559-0.558 0.558-0.558 1.117-1.117 1.675-1.675 0.558-0.558 1.117-0.558 2.233-1.117-0.558-0.558-0.558-1.117-0.558-1.116-0.558-0.558-1.117-0.558-1.675 0-0.558 0.558-1.117 1.117-1.675 1.675-0.558 0.558-1.117 0.558-1.675 0-0.558-0.558-0.558-1.117 0-1.675 0-0.558 0.558-1.117 1.116-1.675 0.558-0.558 0.558-1.117 1.117-1.675-1.117-1.117-1.675-2.233-2.792-2.792-1.675-1.117-3.35-2.792-4.466-4.466-1.117-2.233-2.792-3.908-5.025-5.025-0.558-0.558-1.117-1.117-1.675-1.675-0.558-0.558-0.558-0.558-1.116-1.117-1.675 0.558-2.792 1.675-4.467 2.234-0.558 0-0.558 0.558-1.117 1.116-0.558 1.117-1.675 1.117-2.791 1.117-0.558 0-1.117-0.558-0.558-1.117 0.558-1.117 1.117-2.233 2.791-1.675 0 0 0.558 0 0.558-0.558 1.117-1.117 2.233-2.792 3.909-3.908-0.558-1.675-1.675-2.792-2.234-3.908-0.558-0.558-0.558-1.117-0.558-2.234 0-0.558 0-0.558-0.558-1.116 0 0-0.558 0-1.117 0.558-0.558 0.558-1.675 1.117-2.791 0 0-0.558 0-1.117 0.558-1.675l0.558-0.558c1.675-0.558 1.675-2.233 1.675-3.908v-0.559c-0.558-1.117-0.558-1.675 0.558-2.791 1.675-1.117 3.35-3.35 3.909-5.025 0.558-1.117 1.675-1.675 2.791-2.792 1.117-1.117 2.233-2.233 2.792-3.908h0.558c2.233 0.558 2.792-1.117 3.908-2.791 0-0.558 0-1.117 0.559-1.117 1.117-1.117 1.117-2.233 0.558-3.908 0-0.558-0.558-1.675-0.558-2.233 0-0.558 0-0.558-0.559-1.117-1.675-1.117-1.675-2.233 0-3.35 1.117-0.558 1.117-1.675 1.675-2.233 0.558-1.117 0.558-2.233 0.559-3.908-0.558-1.675-0.558-3.908-1.117-5.583-0.558-2.233-1.117-5.025-1.675-7.259 0-0.558 0-0.558 0-1.116 0-1.675 0-2.792-0.558-4.467-0.558-0.558-0.558-1.675-0.559-2.233-0.558-1.675-1.117-2.792-2.791-3.35-1.675-1.117-3.908-1.675-5.583-2.791-0.558-0.558-1.117 0-1.675 0.558-0.558 1.117-1.675 2.233-2.234 3.35-0.558 0.558-1.117 1.675-1.675 2.791-1.117 1.117-3.35 2.233-5.024 0.559-0.558-1.117-1.117-1.675 0-2.792 1.117-1.675 2.233-3.35 3.908-4.466 0.558-0.558 1.117-1.675 1.675-2.234 0.558-1.117 0.558-2.233 0.558-3.35-0.558-2.233-1.117-4.467-1.117-7.258 0-2.792 0-5.025 0.559-7.816 0.558-1.117 0.558-2.792 1.116-3.908 0-0.558 0.558-1.675 1.117-2.233 1.117-1.117 2.233-2.233 2.792-3.909 0.558-1.675 1.675-3.35 1.675-5.024 0-0.558 0.558-1.117 0.558-1.675 0-0.558 0.558-1.675 0.558-2.234-0.558-1.675 0-2.792 0.558-3.908 0.558-1.117 1.117-2.792 1.675-3.908 1.117-2.233 1.117-5.025 3.35-7.258 0.558-1.117 1.117-2.233 1.675-3.35 0.558-2.233 1.675-3.908 2.792-5.583 0.558-0.558 0.558-0.558 0.558-1.117 0.558-1.675 1.675-3.35 2.792-5.025 1.117-1.675 1.117-3.35 1.675-5.024 0-0.558 0-1.117 0.558-1.675 1.675-1.675 1.117-3.908 0.558-6.142-1.117-2.792-1.675-5.583-1.116-8.374 0-0.558 0-1.117 0.558-1.117 0.558-1.117 0.558-1.675 1.117-2.792v-0.558c1.117-1.117 2.233-2.792 3.908-3.35 2.233-1.117 4.467-1.675 7.258-2.233 2.233 0 4.467-1.117 6.141-3.35 0-0.558 0.558-0.558 1.117-1.117l0.558-0.558c0.558-1.117 1.117-1.675 1.675-2.233 1.117-1.117 2.233-2.792 3.35-3.908 1.117-1.117 2.233-2.792 3.908-4.467l0.559-0.558c1.117-1.117 2.233-2.233 3.349-2.792 1.117-1.117 2.233-2.233 3.35-3.35 1.117-1.117 1.675-2.233 2.792-3.35 1.117-0.558 2.233-1.675 3.35-2.791 1.117-1.117 2.233-2.233 2.791-2.792 1.117-1.117 2.792-2.233 3.909-2.791 1.117-0.558 2.233-1.117 2.791-2.792 0.558-1.675 1.117-2.792 1.675-4.466 0-1.117 0.558-2.233 1.117-3.35 0.558 0 1.117 0 2.233-0.558-0.558-0.558-1.117-0.558-1.117-1.117 0-0.558 0.558-1.117 0.559-1.117 0-0.558 0.558-1.117 0.558-1.675 0 0 0.558 0 0.558-0.558 0 0 0.558 0 0.559-0.558-1.117 0.558-1.675 0-2.234-0.559 0.558 0.558 1.117 0.558 2.234 1.117 0 0 0.558 0 0.558-0.558 0-0.558 0-1.117 0-1.117 0 0-0.558 0-1.117 0-0.558 0-1.117 0.558-1.675 0.558zM182.097 295.292c0-0.558-0.558-0.558-0.559-1.117-0.558-1.117 0-1.675 0.559-2.233 0.558-0.558 1.117-0.558 2.233-0.558 1.117 0.558 1.675 1.117 1.675 2.233 0 0.558 0 1.675 0 2.233 0.558 2.233 0.558 2.233 2.791 2.233 1.117 0 2.233 0 3.35 0 2.233-0.558 4.467-1.675 6.7-2.233 2.233-0.558 4.467-1.117 6.7-1.675 0.558 0 1.117 0 2.233 0 2.233 0.558 3.908 0 5.583-1.117 0.558-0.558 1.675-0.558 2.233-1.116 1.117-0.558 2.233-0.558 3.35-1.117 2.792-1.675 5.583-2.792 7.817-4.466 1.675-1.117 3.35-2.233 5.024-3.35 1.675-1.117 3.35-2.233 5.025-3.35 1.117-0.558 2.792-1.675 3.908-2.792 2.233-1.675 3.908-3.35 6.142-4.466 1.117-0.558 1.675-1.117 2.233-1.675 1.117-0.558 1.675-1.675 2.792-2.233 0.558-0.558 1.117-1.117 2.233-1.675 0.558-0.558 0.558-0.558 0.558-1.117 1.675-1.117 3.35-3.35 4.467-5.025 1.117-1.117 2.233-2.233 3.35-3.908 1.675-1.675 2.792-3.908 4.466-6.141 1.117-1.117 2.233-2.792 2.792-3.909 1.117-2.233 2.233-4.467 3.908-6.141v-0.558c1.117-2.233 2.233-4.467 3.35-6.7 1.675-2.792 2.792-6.141 4.466-8.933 0.558-1.117 1.117-2.233 1.117-3.35 1.117-2.233 1.675-4.467 2.233-6.7 0-0.558 0-0.558 0.559-1.116 1.675-3.35 2.792-6.7 3.349-10.608 0.558-2.233 1.117-4.467 1.675-6.7 1.117-3.35 1.117-6.141 1.675-9.491 0.558-2.233 0.558-5.025 0.559-7.258 0.558-3.35 0.558-7.258 0-10.608 0-2.792-0.558-6.141-0.559-8.933 0-2.792-0.558-5.025-1.116-7.817-0.558-2.792-1.117-5.025-1.675-7.816-1.117-2.233-1.675-4.467-2.234-7.258-0.558-2.233-1.675-3.908-1.674-6.142 0-1.675-0.558-3.35-2.234-3.908-1.675-0.558-2.792-1.117-4.466-2.233-3.35-2.233-5.025-5.025-4.467-8.375 0-1.675 0.558-3.908 1.117-5.583 0.558-1.675 1.117-3.35 0-4.467-0.558-1.675-1.675-2.792-2.233-3.908-1.117-1.675-1.675-2.792-2.792-3.908-1.117-2.233-2.233-4.467-3.908-6.141-2.233-2.792-3.908-5.583-6.7-7.817l-0.558-0.558c-1.675-2.233-3.35-4.467-5.583-6.142-1.117-1.117-2.233-2.233-3.35-2.791-0.558-0.558-1.117-1.117-2.233-1.675-1.675-1.117-3.35-1.675-4.467-2.792-1.675-1.675-3.908-2.792-5.583-3.908 0 0-0.558 0-0.558-0.558-2.233-1.117-3.908-1.675-6.142-2.792-2.233-1.117-4.467-1.675-6.7-1.675-0.558 0-0.558 0-1.116 0-0.558-0.558-1.675-0.558-2.233-0.558-0.558 0-0.558 0-1.117 0-1.117-0.558-2.792 0-3.908 0-2.233 0.558-4.467 0.558-6.7-0.558-2.792-1.117-5.025-2.233-7.258-3.35-1.675-1.117-2.792-2.233-4.467-3.35-3.35-2.792-6.7-6.141-10.608-8.933 0.558-2.792-0.558-3.35-2.791-3.35-1.117 0-2.233 0.558-3.35 1.117-0.558 0.558-0.558 0.558-1.117 1.116-1.675 1.117-2.792 2.792-4.466 3.909-2.792 1.675-3.908 1.117-6.142 0-0.558-0.558-1.117-1.117-1.675-1.675-1.117-1.117-2.233-2.792-2.791-3.909-1.117-2.233-3.35-2.233-5.583-2.233-1.117 0-2.792 0.558-3.908 0.558-2.233 0-4.467 1.117-5.584 2.792-1.117 1.675-2.233 3.35-3.908 5.025-0.558 0.558-1.675 1.117-2.233 2.233-1.117 1.117-2.233 1.117-3.35 0-0.558-0.558-1.117-0.558-1.675-1.117-0.558 0.558-1.117 1.117-1.117 1.675-0.558 1.117-1.117 2.233-1.674 3.909-0.558 1.675-1.675 3.35-2.792 4.466-0.558 0.558-0.558 0.558-1.117 1.117-0.558 1.117-2.233 1.675-3.35 1.675-1.117 1.117-2.233 2.792-2.791 3.908-0.558 1.117-1.117 2.233-1.675 3.908-0.558 0.558-0.558 1.675-1.117 2.233-0.558 1.117-0.558 1.675-0.558 2.792 0.558 1.675-0.558 2.233-2.233 2.791-1.117 0-1.117 0-1.675 1.117 0 1.675 0.558 2.792 1.116 4.467 0.558 0.558 1.117 1.675 1.117 2.233 0 1.117 0.558 1.675 1.675 2.233 0.558 0.558 1.117 1.117 1.675 1.117 0.558 0 0.558 0.558 1.117 0.558 0.558 0.558 1.117 0 1.116-0.558 0.558-1.675 1.117-3.35 1.117-5.025 0.558-2.233 0.558-3.908 1.116-6.142 0.558-1.117 1.117-1.675 1.675-2.233 0 0 0.558 0 1.117 0v0.559c-0.558 2.792-1.675 6.141-2.233 8.933-0.558 1.117-0.558 2.233-1.117 3.349 0 0.558-0.558 1.117-1.116 1.117-1.117 0.558-2.233 1.117-3.35 1.117-0.558 0-1.117 0-1.675 0-1.117-0.558-2.233-1.675-3.35-2.234-0.558-0.558-1.117-1.117-1.675-1.674-0.558-1.117-1.117-2.233-1.675-3.35-0.558-1.117-1.117-1.675-2.233-2.234-0.558-0.558-1.117-0.558-1.675-1.116-1.117-1.117-2.233-1.675-3.908-1.675-0.558 0-1.675 0-2.234 0-0.558 0-1.675 0.558-2.233 1.116-1.117 0.558-1.675 0.558-2.791 0-2.792-1.117-5.583-0.558-8.375 0.559-1.117 0.558-2.233 1.117-3.35 1.116-2.792 0-5.025 0-7.816 0-2.792 0-5.025-0.558-7.817-1.116-1.117 0-2.233 0-3.35 0-2.233 0.558-2.792 2.233-2.233 4.466 0.558 2.233 1.117 5.025 1.117 7.258 0 1.675 0 3.35 0 5.025 0 1.117 0 1.675 0 2.792 0 1.675-0.558 3.35-0.559 5.025-0.558 3.35-2.233 6.141-4.466 8.374-1.675 1.675-3.908 3.35-6.142 3.908-1.117 0.558-2.233 1.117-3.908 1.675-2.792 1.117-5.025 3.35-6.7 6.142-0.558 1.117-1.117 2.233-1.674 3.35-1.117 1.675-1.675 2.792-2.792 4.466-0.558 1.117-1.675 2.233-2.233 3.35-0.558 1.117-1.675 1.675-1.675 2.792-1.117 2.233-1.675 4.467-2.792 6.699-0.558 1.117-0.558 2.792-1.116 3.909-1.117 2.233-1.117 4.467-1.117 7.258 0 0.558 0 1.117 0 2.233 0 2.792-0.558 6.141-0.558 8.933 0 2.792 0 5.583 0.558 8.375 0 1.117 0 2.792 0 3.908 0 2.233 0.558 5.025 0.558 7.258 0 2.233 0 5.025 1.117 7.258v0.558c0.558 2.233 0.558 4.467 1.116 6.7 0 0.558 0 1.117 0.559 1.675 1.117 3.35 1.675 6.141 2.791 9.491 0.558 2.233 1.675 4.467 2.234 6.7 0.558 2.233 2.792 4.467 3.349 7.258v0c1.675 3.35 3.35 6.7 5.584 10.05 0.558 1.117 1.675 2.233 2.233 3.35 1.117 1.675 1.675 3.35 2.791 4.466 0.558 1.117 1.675 2.233 2.234 2.792 0.558 1.117 1.117 2.233 2.233 3.35 1.117 1.117 2.233 2.792 3.35 3.908 1.675 2.792 3.908 5.025 6.141 6.7 1.117 1.117 2.233 1.675 3.35 2.791 0.558 0.558 1.117 0.558 1.117 1.117 0.558 0.558 1.117 1.117 2.233 1.675 4.467 2.233 7.816 5.583 11.725 8.933 1.675 1.675 3.35 3.35 5.583 4.466 2.233 1.675 3.908 3.35 6.7 3.908 0 0 0.558 0 0.558 0.559 1.117 1.117 2.792 1.675 3.908 2.233 2.233 1.117 5.025 2.233 7.258 3.35 0.558 0.558 1.675 0.558 2.233 1.117 1.675 0.558 3.35 1.117 5.025 1.674 1.675 0.558 2.792 1.117 4.467 1.117h0.558c1.117 0.558 1.675 0.558 2.792 0 0.558 0 1.117 0 1.116 0.558 0 0.558 0.558 0.558 1.117 0.559 0.558 0 1.117 0 2.233 0 0.558-0.558 0.558-1.117 1.117-2.234 0.558 0.558 1.117 0.558 1.116 0.559 0.558 1.117 1.675 1.117 2.792 1.116h0.558c1.117 0 1.675 0 2.233-0.558 0-0.558 1.117-0.558 1.675-0.558 1.675 0.558 3.35 0.558 5.025 1.116 1.117 0.558 2.792 0.558 3.35-0.558 0.558-0.558 1.117-1.117 2.233-0.558 1.117 0.558 1.675 0.558 2.792 0 0.558 0 1.117 0 1.117 0 1.675 0.558 2.792 0.558 4.466 1.116 2.233 0.558 2.233 0.558 3.908-1.116 0.558-0.558 1.675-0.558 2.233 0 0.558 1.117 0.558 1.675 0.559 2.791 0.558 0 0.558 0 1.116-0.558 0-1.117 0.558-1.117 1.675-1.675 0.558 0.558 0.558 0.558 1.117 0.558 1.117 1.117 1.675 1.117 2.233-0.558 0-0.558 0-1.117 0.559-1.116 0.558 0 1.117 0.558 1.116 0.558 0.558 1.117 1.675 1.675 2.233 2.791 1.117 1.117 2.792 1.117 3.35 0 0.558-0.558 1.117-0.558 1.675-0.558 0-0.558 0-1.117 0-1.675 1.675 1.117 1.117 1.117 0.559 1.117zM89.417 34.559c1.675 0.558 2.792 0.558 3.349-0.558-1.117 0.558-2.233-0.558-3.349 0.558z" fill="#ffffff" fill-rule="nonzero" stroke="none" stroke-width="1" stroke-linecap="butt" stroke-linejoin="miter" stroke-miterlimit="10" stroke-dasharray="" stroke-dashoffset="0" font-family="none" font-weight="none" font-size="none" text-anchor="none" style="mix-blend-mode: normal" data-fill-palette-color="tertiary"></path></g><g transform="matrix(1,0,0,1,64,115.57734422150926)"><svg viewBox="0 0 192 128.84531155698147" height="128.84531155698147" width="192"><g><svg viewBox="0 0 192 128.84531155698147" height="128.84531155698147" width="192"><g transform="matrix(1,0,0,1,0,94.37133467551415)"><svg viewBox="0 0 192 34.473976881467316" height="34.473976881467316" width="192"><g id="textblocktransform"><svg viewBox="0 0 192 34.473976881467316" height="34.473976881467316" width="192" id="textblock"><g><svg viewBox="0 0 192 22.72864864864865" height="22.72864864864865" width="192"><g transform="matrix(1,0,0,1,0,0)"><svg width="192" viewBox="2.6500000953674316 -32.45000076293945 277.4700012207031 32.85000228881836" height="22.72864864864865" data-palette-color="#0718c4"><path d="M33.8-32.1L36.85 0 32.25 0 31.6-9.75 30.1-24.25 29.75-24.25 21.5-3.55 17.4-3.55 9.75-24.25 9.3-24.25 7.8-10.2 7 0 2.65 0 6-32.1 11.9-32.1 13.4-27.3 19.55-10.25 19.95-10.25 26.45-27.45 27.95-32.1 33.8-32.1ZM55.15-4.15L62.9-4.4 63.2-3.95 62.85 0 43.9 0 44.25-9.65 43.9-32.1 62.95-32.1 63.25-31.65 62.85-27.7 55.25-27.9 49.15-27.85 49-18.5 54.8-18.4 60.1-18.55 60.45-18.15 60.05-14.2 54.4-14.35 48.95-14.25 48.9-10.1 49.05-4.2 55.15-4.15ZM80.75-32.3Q87.65-32.3 91.34-28.4 95.05-24.5 95.05-17.2L95.05-17.2Q95.05-8.75 91-4.23 86.95 0.3 79.34 0.3L79.34 0.3Q77.2 0.3 74.2 0.23 71.2 0.15 68.59 0L68.59 0 68.55 0 68.9-9.65 68.55-32.1 68.59-32.1 80.75-32.3ZM80.25-3.8Q84.84-3.8 87.27-6.85 89.7-9.9 89.7-16.05L89.7-16.05Q89.7-22.25 87.37-25.18 85.05-28.1 80.34-28.1L80.34-28.1Q77.59-28.1 73.8-27.9L73.8-27.9 73.55-10.1 73.7-4.15Q75.5-4 77.3-3.9 79.09-3.8 80.25-3.8L80.25-3.8ZM106.24-32.1L105.94-10.1 106.19 0 100.94 0 101.29-9.65 100.94-32.1 106.24-32.1ZM126.24-32.45Q131.14-32.45 134.89-30.25L134.89-30.25 133.94-25.7 133.44-25.55Q130.09-28.15 126.04-28.15L126.04-28.15Q121.64-28.15 119.32-25.18 116.99-22.2 116.99-16.3L116.99-16.3Q116.99-10.25 119.34-7.1 121.69-3.95 126.04-3.95L126.04-3.95Q128.14-3.95 130.22-4.67 132.29-5.4 134.04-6.7L134.04-6.7 134.54-6.4 134.14-1.7Q129.84 0.4 125.64 0.4L125.64 0.4Q118.89 0.4 115.24-3.8 111.59-8 111.59-15.75L111.59-15.75Q111.59-23.75 115.42-28.1 119.24-32.45 126.24-32.45L126.24-32.45ZM153.79-32.1L164.14 0 158.84 0 158.09-3.6 156.69-8.05 149.89-8.2 143.74-8.05 142.24-3.85 141.44 0 136.29 0 147.74-32.1 153.79-32.1ZM150.24-12.15L155.39-12.25 150.79-27.05 150.44-27.05 145.19-12.25 150.24-12.15ZM185.79-4.3L186.14-3.85 185.74 0 169.24 0 169.59-9.65 169.24-32.1 174.54-32.1 174.24-10.1 174.34-4.3 185.79-4.3ZM207.93-32.45Q211.73-32.45 215.53-30.85L215.53-30.85 214.68-26.15 213.88-25.85Q212.28-27 210.58-27.65 208.88-28.3 207.33-28.3L207.33-28.3Q204.88-28.3 203.43-26.95 201.98-25.6 201.98-23.8L201.98-23.8Q201.98-22.05 203.43-20.93 204.88-19.8 207.98-18.35L207.98-18.35Q210.68-17.05 212.36-16 214.03-14.95 215.23-13.23 216.43-11.5 216.43-9.1L216.43-9.1Q216.43-6.5 215.01-4.33 213.58-2.15 211.01-0.88 208.43 0.4 205.13 0.4L205.13 0.4Q202.93 0.4 200.58-0.15 198.23-0.7 196.13-1.75L196.13-1.75 196.78-6.85 197.43-7.15Q199.28-5.4 201.51-4.53 203.73-3.65 205.63-3.65L205.63-3.65Q208.23-3.65 209.78-5.03 211.33-6.4 211.33-8.3L211.33-8.3Q211.33-10.2 209.83-11.38 208.33-12.55 205.23-14L205.23-14Q202.58-15.25 200.93-16.28 199.28-17.3 198.11-19 196.93-20.7 196.93-23.1L196.93-23.1Q196.93-25.7 198.33-27.85 199.73-30 202.23-31.23 204.73-32.45 207.93-32.45L207.93-32.45ZM227.98-32.1L227.68-10.1 227.93 0 222.68 0 223.03-9.65 222.68-32.1 227.98-32.1ZM255.33-32.1L255.63-31.65 255.33-27.75 249.53-28.05 246.83-28.05 246.58-10.1 246.83 0 241.63 0 241.93-9.65 241.68-28.05 238.98-28.05 233.08-27.75 232.73-28.2 233.13-32.1 255.33-32.1ZM272.02-4.15L279.77-4.4 280.07-3.95 279.72 0 260.77 0 261.12-9.65 260.77-32.1 279.82-32.1 280.12-31.65 279.72-27.7 272.12-27.9 266.02-27.85 265.87-18.5 271.67-18.4 276.97-18.55 277.32-18.15 276.92-14.2 271.27-14.35 265.82-14.25 265.77-10.1 265.92-4.2 272.02-4.15Z" opacity="1" transform="matrix(1,0,0,1,0,0)" fill="#ffffff" class="wordmark-text-0" data-fill-palette-color="primary" id="text-0"></path></svg></g></svg></g><g transform="matrix(1,0,0,1,36.672,28.09433710702703)"><svg viewBox="0 0 118.656 6.379639774440287" height="6.379639774440287" width="118.656"><g transform="matrix(1,0,0,1,0,0)"><svg width="118.656" viewBox="3.75 -37 895.4500122070312 48.150001525878906" height="6.379639774440287" data-palette-color="#77d4fc"><path d="M42.5-15.25L42.5 0 39.1 0 39.1-14.55Q39.1-19.1 37.65-21.25 36.2-23.4 33.35-23.4L33.35-23.4Q30.4-23.4 28.08-21.3 25.75-19.2 24.8-15.9L24.8-15.9 24.8 0 21.4 0 21.4-14.55Q21.4-19.15 20-21.28 18.6-23.4 15.7-23.4L15.7-23.4Q12.8-23.4 10.45-21.35 8.1-19.3 7.15-15.95L7.15-15.95 7.15 0 3.75 0 3.75-26.05 6.85-26.05 6.85-20.15Q8.5-23.2 11.08-24.85 13.65-26.5 16.8-26.5L16.8-26.5Q20.05-26.5 22.05-24.65 24.05-22.8 24.5-19.8L24.5-19.8Q26.3-23.1 28.83-24.8 31.35-26.5 34.55-26.5L34.55-26.5Q36.75-26.5 38.27-25.7 39.8-24.9 40.73-23.43 41.65-21.95 42.08-19.88 42.5-17.8 42.5-15.25L42.5-15.25ZM60.95 0.5L60.95 0.5Q58.15 0.5 55.75-0.58 53.35-1.65 51.6-3.53 49.85-5.4 48.87-7.85 47.9-10.3 47.9-13.1L47.9-13.1Q47.9-16.75 49.57-19.8 51.25-22.85 54.2-24.68 57.15-26.5 60.9-26.5L60.9-26.5Q64.75-26.5 67.62-24.65 70.5-22.8 72.15-19.78 73.8-16.75 73.8-13.15L73.8-13.15Q73.8-12.75 73.8-12.38 73.8-12 73.75-11.8L73.75-11.8 51.45-11.8Q51.7-9 53.02-6.83 54.35-4.65 56.47-3.38 58.6-2.1 61.1-2.1L61.1-2.1Q63.65-2.1 65.92-3.4 68.2-4.7 69.1-6.8L69.1-6.8 72.05-6Q71.25-4.15 69.6-2.65 67.95-1.15 65.72-0.33 63.5 0.5 60.95 0.5ZM51.35-14.25L51.35-14.25 70.6-14.25Q70.4-17.1 69.07-19.25 67.75-21.4 65.62-22.63 63.5-23.85 60.95-23.85L60.95-23.85Q58.4-23.85 56.3-22.63 54.2-21.4 52.87-19.23 51.55-17.05 51.35-14.25ZM77.3-12.95L77.3-12.95Q77.3-16.65 78.82-19.73 80.35-22.8 83.05-24.65 85.75-26.5 89.2-26.5L89.2-26.5Q92.45-26.5 95.02-24.78 97.6-23.05 99.05-20.6L99.05-20.6 99.05-36.5 102.45-36.5 102.45-4.1Q102.45-3.4 102.75-3.08 103.05-2.75 103.65-2.7L103.65-2.7 103.65 0Q102.65 0.15 102.1 0.1L102.1 0.1Q101.05 0.05 100.25-0.75 99.45-1.55 99.45-2.5L99.45-2.5 99.45-5.05Q97.9-2.5 95.25-1 92.6 0.5 89.75 0.5L89.75 0.5Q87.05 0.5 84.77-0.6 82.5-1.7 80.82-3.6 79.15-5.5 78.22-7.93 77.3-10.35 77.3-12.95ZM99.05-8.95L99.05-8.95 99.05-17Q98.4-18.8 96.95-20.28 95.5-21.75 93.67-22.63 91.85-23.5 90.05-23.5L90.05-23.5Q87.95-23.5 86.25-22.63 84.55-21.75 83.32-20.25 82.1-18.75 81.45-16.85 80.8-14.95 80.8-12.95L80.8-12.95Q80.8-10.85 81.52-8.95 82.25-7.05 83.6-5.58 84.95-4.1 86.7-3.3 88.45-2.5 90.5-2.5L90.5-2.5Q91.8-2.5 93.2-3 94.6-3.5 95.87-4.38 97.15-5.25 98-6.45 98.85-7.65 99.05-8.95ZM113.54 0L110.14 0 110.14-26.05 113.54-26.05 113.54 0ZM113.54-31.5L110.14-31.5 110.14-36.5 113.54-36.5 113.54-31.5ZM132.34 0.5L132.34 0.5Q129.49 0.5 127.12-0.58 124.74-1.65 122.97-3.55 121.19-5.45 120.22-7.9 119.24-10.35 119.24-13.1L119.24-13.1Q119.24-16.8 120.89-19.85 122.54-22.9 125.49-24.7 128.44-26.5 132.29-26.5L132.29-26.5Q135.94-26.5 138.74-24.83 141.54-23.15 142.89-20.3L142.89-20.3 139.59-19.25Q138.49-21.25 136.52-22.38 134.54-23.5 132.14-23.5L132.14-23.5Q129.54-23.5 127.39-22.15 125.24-20.8 123.97-18.45 122.69-16.1 122.69-13.1L122.69-13.1Q122.69-10.15 123.99-7.75 125.29-5.35 127.44-3.93 129.59-2.5 132.19-2.5L132.19-2.5Q133.89-2.5 135.47-3.1 137.04-3.7 138.22-4.73 139.39-5.75 139.79-6.95L139.79-6.95 143.14-5.95Q142.44-4.1 140.82-2.63 139.19-1.15 137.02-0.33 134.84 0.5 132.34 0.5ZM146.39-7.5L146.39-7.5Q146.39-9.95 147.79-11.73 149.19-13.5 151.66-14.48 154.14-15.45 157.39-15.45L157.39-15.45Q159.29-15.45 161.34-15.15 163.39-14.85 164.99-14.25L164.99-14.25 164.99-16.45Q164.99-19.75 163.04-21.7 161.09-23.65 157.64-23.65L157.64-23.65Q155.54-23.65 153.51-22.88 151.49-22.1 149.29-20.6L149.29-20.6 147.99-23Q150.54-24.75 152.99-25.63 155.44-26.5 157.99-26.5L157.99-26.5Q162.79-26.5 165.59-23.75 168.39-21 168.39-16.15L168.39-16.15 168.39-4.1Q168.39-3.4 168.69-3.08 168.99-2.75 169.64-2.7L169.64-2.7 169.64 0Q169.09 0.05 168.69 0.1 168.29 0.15 168.09 0.1L168.09 0.1Q166.84 0.05 166.19-0.7 165.54-1.45 165.49-2.3L165.49-2.3 165.44-4.2Q163.69-1.95 160.89-0.73 158.09 0.5 155.19 0.5L155.19 0.5Q152.69 0.5 150.66-0.58 148.64-1.65 147.51-3.48 146.39-5.3 146.39-7.5ZM163.84-5.5L163.84-5.5Q164.39-6.2 164.69-6.85 164.99-7.5 164.99-8L164.99-8 164.99-11.8Q163.29-12.45 161.46-12.8 159.64-13.15 157.79-13.15L157.79-13.15Q154.14-13.15 151.89-11.7 149.64-10.25 149.64-7.75L149.64-7.75Q149.64-6.3 150.39-5.03 151.14-3.75 152.59-2.93 154.04-2.1 155.99-2.1L155.99-2.1Q158.44-2.1 160.56-3.05 162.69-4 163.84-5.5ZM175.89-4.75L175.89-36.5 179.29-36.5 179.29-5.9Q179.29-3.95 179.99-3.35 180.69-2.75 181.69-2.75L181.69-2.75Q182.59-2.75 183.49-2.95 184.39-3.15 185.04-3.35L185.04-3.35 185.64-0.6Q184.69-0.2 183.31 0.05 181.94 0.3 180.94 0.3L180.94 0.3Q178.64 0.3 177.26-1.05 175.89-2.4 175.89-4.75L175.89-4.75ZM191.63 4.05L189.88 4.05 190.73-0.15 189.58-0.15 189.58-4.9 192.88-4.9 192.88-0.15 191.63 4.05ZM231.83-20.1L225.63-35.25 228.93-35.25 233.93-22.65 238.98-35.25 242.33-35.25 236.13-20.1 242.93-4.05 255.78-35.5 259.58-35.5 244.53 0 241.43 0 233.98-17.55 226.48 0 223.43 0 208.43-35.5 212.18-35.5 225.08-4.05 231.83-20.1ZM271.77 0.5L271.77 0.5Q268.97 0.5 266.57-0.58 264.17-1.65 262.42-3.53 260.67-5.4 259.7-7.85 258.72-10.3 258.72-13.1L258.72-13.1Q258.72-16.75 260.4-19.8 262.07-22.85 265.02-24.68 267.97-26.5 271.72-26.5L271.72-26.5Q275.57-26.5 278.45-24.65 281.32-22.8 282.97-19.78 284.63-16.75 284.63-13.15L284.63-13.15Q284.63-12.75 284.63-12.38 284.63-12 284.57-11.8L284.57-11.8 262.27-11.8Q262.52-9 263.85-6.83 265.17-4.65 267.3-3.38 269.42-2.1 271.92-2.1L271.92-2.1Q274.47-2.1 276.75-3.4 279.02-4.7 279.92-6.8L279.92-6.8 282.88-6Q282.07-4.15 280.42-2.65 278.77-1.15 276.55-0.33 274.32 0.5 271.77 0.5ZM262.17-14.25L262.17-14.25 281.42-14.25Q281.22-17.1 279.9-19.25 278.57-21.4 276.45-22.63 274.32-23.85 271.77-23.85L271.77-23.85Q269.22-23.85 267.13-22.63 265.02-21.4 263.7-19.23 262.38-17.05 262.17-14.25ZM302.62 0.5L302.62 0.5Q299.57 0.5 296.97-1.07 294.37-2.65 292.92-5.05L292.92-5.05 292.92 0 289.87 0 289.87-36.5 293.27-36.5 293.27-20.6Q295.02-23.25 297.47-24.88 299.92-26.5 303.17-26.5L303.17-26.5Q305.92-26.5 308.1-25.35 310.27-24.2 311.82-22.28 313.37-20.35 314.17-17.93 314.97-15.5 314.97-12.95L314.97-12.95Q314.97-10.2 314.05-7.8 313.12-5.4 311.42-3.53 309.72-1.65 307.5-0.58 305.27 0.5 302.62 0.5ZM301.82-2.5L301.82-2.5Q303.92-2.5 305.72-3.35 307.52-4.2 308.82-5.7 310.12-7.2 310.82-9.08 311.52-10.95 311.52-12.95L311.52-12.95Q311.52-15.7 310.35-18.13 309.17-20.55 307.1-22.03 305.02-23.5 302.22-23.5L302.22-23.5Q300.22-23.5 298.5-22.6 296.77-21.7 295.45-20.23 294.12-18.75 293.27-17L293.27-17 293.27-8.9Q293.47-7.55 294.32-6.38 295.17-5.2 296.45-4.35 297.72-3.5 299.12-3 300.52-2.5 301.82-2.5ZM329.27 0.5L329.27 0.5Q326.07 0.5 323.32-0.55 320.57-1.6 318.57-3.75L318.57-3.75 319.97-6.15Q322.17-4.1 324.4-3.18 326.62-2.25 329.12-2.25L329.12-2.25Q332.17-2.25 334.07-3.48 335.97-4.7 335.97-7L335.97-7Q335.97-8.55 335.05-9.38 334.12-10.2 332.4-10.73 330.67-11.25 328.27-11.85L328.27-11.85Q325.57-12.6 323.75-13.43 321.92-14.25 321-15.53 320.07-16.8 320.07-18.85L320.07-18.85Q320.07-21.4 321.35-23.08 322.62-24.75 324.85-25.63 327.07-26.5 329.82-26.5L329.82-26.5Q332.82-26.5 335.12-25.55 337.42-24.6 338.87-22.9L338.87-22.9 337.22-20.6Q335.82-22.2 333.9-22.98 331.97-23.75 329.62-23.75L329.62-23.75Q328.02-23.75 326.57-23.33 325.12-22.9 324.2-21.93 323.27-20.95 323.27-19.25L323.27-19.25Q323.27-17.85 323.97-17.07 324.67-16.3 326.07-15.78 327.47-15.25 329.52-14.65L329.52-14.65Q332.47-13.85 334.67-13.03 336.87-12.2 338.07-10.9 339.27-9.6 339.27-7.25L339.27-7.25Q339.27-3.6 336.52-1.55 333.77 0.5 329.27 0.5ZM348.27 0L344.87 0 344.87-26.05 348.27-26.05 348.27 0ZM348.27-31.5L344.87-31.5 344.87-36.5 348.27-36.5 348.27-31.5ZM367.37-4L368.26-1.25Q367.87-1.1 367.01-0.7 366.16-0.3 364.96 0 363.76 0.3 362.37 0.3L362.37 0.3Q360.91 0.3 359.64-0.25 358.37-0.8 357.62-1.93 356.87-3.05 356.87-4.7L356.87-4.7 356.87-23.35 353.26-23.35 353.26-26.05 356.87-26.05 356.87-34.85 360.26-34.85 360.26-26.05 366.26-26.05 366.26-23.35 360.26-23.35 360.26-5.65Q360.37-4.25 361.29-3.55 362.21-2.85 363.41-2.85L363.41-2.85Q364.81-2.85 365.96-3.33 367.12-3.8 367.37-4L367.37-4ZM383.31 0.5L383.31 0.5Q380.51 0.5 378.11-0.58 375.71-1.65 373.96-3.53 372.21-5.4 371.24-7.85 370.26-10.3 370.26-13.1L370.26-13.1Q370.26-16.75 371.94-19.8 373.61-22.85 376.56-24.68 379.51-26.5 383.26-26.5L383.26-26.5Q387.11-26.5 389.99-24.65 392.86-22.8 394.51-19.78 396.16-16.75 396.16-13.15L396.16-13.15Q396.16-12.75 396.16-12.38 396.16-12 396.11-11.8L396.11-11.8 373.81-11.8Q374.06-9 375.39-6.83 376.71-4.65 378.84-3.38 380.96-2.1 383.46-2.1L383.46-2.1Q386.01-2.1 388.29-3.4 390.56-4.7 391.46-6.8L391.46-6.8 394.41-6Q393.61-4.15 391.96-2.65 390.31-1.15 388.09-0.33 385.86 0.5 383.31 0.5ZM373.71-14.25L373.71-14.25 392.96-14.25Q392.76-17.1 391.44-19.25 390.11-21.4 387.99-22.63 385.86-23.85 383.31-23.85L383.31-23.85Q380.76-23.85 378.66-22.63 376.56-21.4 375.24-19.23 373.91-17.05 373.71-14.25ZM418.81 0L415.41 0 415.41-23.35 411.81-23.35 411.81-26.05 415.41-26.05 415.41-26.75Q415.41-29.95 416.33-32.25 417.26-34.55 418.98-35.77 420.71-37 423.06-37L423.06-37Q424.61-37 426.06-36.55 427.51-36.1 428.56-35.35L428.56-35.35 427.51-32.9Q426.86-33.45 425.81-33.75 424.76-34.05 423.71-34.05L423.71-34.05Q421.36-34.05 420.08-32.2 418.81-30.35 418.81-26.85L418.81-26.85 418.81-26.05 426.01-26.05 426.01-23.35 418.81-23.35 418.81 0ZM440.96 0.5L440.96 0.5Q438.16 0.5 435.78-0.58 433.41-1.65 431.68-3.53 429.96-5.4 429-7.83 428.06-10.25 428.06-12.95L428.06-12.95Q428.06-15.75 429-18.18 429.96-20.6 431.71-22.48 433.46-24.35 435.83-25.43 438.21-26.5 441-26.5L441-26.5Q443.81-26.5 446.16-25.43 448.5-24.35 450.25-22.48 452-20.6 452.96-18.18 453.91-15.75 453.91-12.95L453.91-12.95Q453.91-10.25 452.96-7.83 452-5.4 450.28-3.53 448.56-1.65 446.18-0.58 443.81 0.5 440.96 0.5ZM431.5-12.9L431.5-12.9Q431.5-10 432.78-7.63 434.06-5.25 436.21-3.88 438.36-2.5 440.96-2.5L440.96-2.5Q443.56-2.5 445.71-3.9 447.86-5.3 449.16-7.73 450.46-10.15 450.46-13L450.46-13Q450.46-15.9 449.16-18.3 447.86-20.7 445.71-22.1 443.56-23.5 440.96-23.5L440.96-23.5Q438.36-23.5 436.23-22.05 434.11-20.6 432.81-18.23 431.5-15.85 431.5-12.9ZM472.6-26.15L472.6-23.05Q469.2-22.95 466.63-21.15 464.05-19.35 463-16.2L463-16.2 463 0 459.6 0 459.6-26.05 462.8-26.05 462.8-19.8Q464.15-22.55 466.38-24.25 468.6-25.95 471.1-26.15L471.1-26.15Q471.6-26.2 471.98-26.2 472.35-26.2 472.6-26.15L472.6-26.15ZM497.3 0.5L497.3 0.5Q494.1 0.5 491.35-0.55 488.6-1.6 486.6-3.75L486.6-3.75 488-6.15Q490.2-4.1 492.42-3.18 494.65-2.25 497.15-2.25L497.15-2.25Q500.2-2.25 502.1-3.48 504-4.7 504-7L504-7Q504-8.55 503.07-9.38 502.15-10.2 500.42-10.73 498.7-11.25 496.3-11.85L496.3-11.85Q493.6-12.6 491.77-13.43 489.95-14.25 489.02-15.53 488.1-16.8 488.1-18.85L488.1-18.85Q488.1-21.4 489.37-23.08 490.65-24.75 492.87-25.63 495.1-26.5 497.85-26.5L497.85-26.5Q500.85-26.5 503.15-25.55 505.45-24.6 506.9-22.9L506.9-22.9 505.25-20.6Q503.85-22.2 501.92-22.98 500-23.75 497.65-23.75L497.65-23.75Q496.05-23.75 494.6-23.33 493.15-22.9 492.22-21.93 491.3-20.95 491.3-19.25L491.3-19.25Q491.3-17.85 492-17.07 492.7-16.3 494.1-15.78 495.5-15.25 497.55-14.65L497.55-14.65Q500.5-13.85 502.7-13.03 504.9-12.2 506.1-10.9 507.3-9.6 507.3-7.25L507.3-7.25Q507.3-3.6 504.55-1.55 501.8 0.5 497.3 0.5ZM524.14 0.5L524.14 0.5Q521.35 0.5 518.95-0.58 516.55-1.65 514.8-3.53 513.05-5.4 512.07-7.85 511.1-10.3 511.1-13.1L511.1-13.1Q511.1-16.75 512.77-19.8 514.45-22.85 517.39-24.68 520.35-26.5 524.1-26.5L524.1-26.5Q527.95-26.5 530.82-24.65 533.7-22.8 535.35-19.78 537-16.75 537-13.15L537-13.15Q537-12.75 537-12.38 537-12 536.95-11.8L536.95-11.8 514.64-11.8Q514.89-9 516.22-6.83 517.55-4.65 519.67-3.38 521.8-2.1 524.3-2.1L524.3-2.1Q526.85-2.1 529.12-3.4 531.39-4.7 532.3-6.8L532.3-6.8 535.25-6Q534.45-4.15 532.8-2.65 531.14-1.15 528.92-0.33 526.7 0.5 524.14 0.5ZM514.55-14.25L514.55-14.25 533.8-14.25Q533.6-17.1 532.27-19.25 530.95-21.4 528.82-22.63 526.7-23.85 524.14-23.85L524.14-23.85Q521.6-23.85 519.5-22.63 517.39-21.4 516.07-19.23 514.75-17.05 514.55-14.25ZM542.39-4.75L542.39-36.5 545.79-36.5 545.79-5.9Q545.79-3.95 546.49-3.35 547.19-2.75 548.19-2.75L548.19-2.75Q549.09-2.75 549.99-2.95 550.89-3.15 551.54-3.35L551.54-3.35 552.14-0.6Q551.19-0.2 549.82 0.05 548.44 0.3 547.44 0.3L547.44 0.3Q545.14 0.3 543.77-1.05 542.39-2.4 542.39-4.75L542.39-4.75ZM560.49 0L557.09 0 557.09-23.35 553.49-23.35 553.49-26.05 557.09-26.05 557.09-26.75Q557.09-29.95 558.01-32.25 558.94-34.55 560.66-35.77 562.39-37 564.74-37L564.74-37Q566.29-37 567.74-36.55 569.19-36.1 570.24-35.35L570.24-35.35 569.19-32.9Q568.54-33.45 567.49-33.75 566.44-34.05 565.39-34.05L565.39-34.05Q563.04-34.05 561.76-32.2 560.49-30.35 560.49-26.85L560.49-26.85 560.49-26.05 567.69-26.05 567.69-23.35 560.49-23.35 560.49 0ZM585.24-12.05L570.64-12.05 570.64-15.2 585.24-15.2 585.24-12.05ZM590.48-12.95L590.48-12.95Q590.48-16.65 592.01-19.73 593.53-22.8 596.23-24.65 598.93-26.5 602.38-26.5L602.38-26.5Q605.63-26.5 608.21-24.78 610.78-23.05 612.23-20.6L612.23-20.6 612.23-36.5 615.63-36.5 615.63-4.1Q615.63-3.4 615.93-3.08 616.23-2.75 616.83-2.7L616.83-2.7 616.83 0Q615.83 0.15 615.28 0.1L615.28 0.1Q614.23 0.05 613.43-0.75 612.63-1.55 612.63-2.5L612.63-2.5 612.63-5.05Q611.08-2.5 608.43-1 605.78 0.5 602.93 0.5L602.93 0.5Q600.23 0.5 597.96-0.6 595.68-1.7 594.01-3.6 592.33-5.5 591.41-7.93 590.48-10.35 590.48-12.95ZM612.23-8.95L612.23-8.95 612.23-17Q611.58-18.8 610.13-20.28 608.68-21.75 606.86-22.63 605.03-23.5 603.23-23.5L603.23-23.5Q601.13-23.5 599.43-22.63 597.73-21.75 596.51-20.25 595.28-18.75 594.63-16.85 593.98-14.95 593.98-12.95L593.98-12.95Q593.98-10.85 594.71-8.95 595.43-7.05 596.78-5.58 598.13-4.1 599.88-3.3 601.63-2.5 603.68-2.5L603.68-2.5Q604.98-2.5 606.38-3 607.78-3.5 609.06-4.38 610.33-5.25 611.18-6.45 612.03-7.65 612.23-8.95ZM626.73 0L623.33 0 623.33-26.05 626.73-26.05 626.73 0ZM626.73-31.5L623.33-31.5 623.33-36.5 626.73-36.5 626.73-31.5ZM632.13-7.5L632.13-7.5Q632.13-9.95 633.53-11.73 634.93-13.5 637.4-14.48 639.88-15.45 643.13-15.45L643.13-15.45Q645.03-15.45 647.08-15.15 649.13-14.85 650.73-14.25L650.73-14.25 650.73-16.45Q650.73-19.75 648.78-21.7 646.83-23.65 643.38-23.65L643.38-23.65Q641.28-23.65 639.25-22.88 637.23-22.1 635.03-20.6L635.03-20.6 633.73-23Q636.28-24.75 638.73-25.63 641.18-26.5 643.73-26.5L643.73-26.5Q648.53-26.5 651.33-23.75 654.13-21 654.13-16.15L654.13-16.15 654.13-4.1Q654.13-3.4 654.43-3.08 654.73-2.75 655.38-2.7L655.38-2.7 655.38 0Q654.83 0.05 654.43 0.1 654.03 0.15 653.83 0.1L653.83 0.1Q652.58 0.05 651.93-0.7 651.28-1.45 651.23-2.3L651.23-2.3 651.18-4.2Q649.43-1.95 646.63-0.73 643.83 0.5 640.93 0.5L640.93 0.5Q638.43 0.5 636.4-0.58 634.38-1.65 633.25-3.48 632.13-5.3 632.13-7.5ZM649.58-5.5L649.58-5.5Q650.13-6.2 650.43-6.85 650.73-7.5 650.73-8L650.73-8 650.73-11.8Q649.03-12.45 647.2-12.8 645.38-13.15 643.53-13.15L643.53-13.15Q639.88-13.15 637.63-11.7 635.38-10.25 635.38-7.75L635.38-7.75Q635.38-6.3 636.13-5.03 636.88-3.75 638.33-2.93 639.78-2.1 641.73-2.1L641.73-2.1Q644.18-2.1 646.3-3.05 648.43-4 649.58-5.5ZM671.93 0.35L671.93 0.35Q669.28 0.35 667.03-0.75 664.78-1.85 663.15-3.73 661.53-5.6 660.63-8 659.73-10.4 659.73-12.95L659.73-12.95Q659.73-15.7 660.6-18.13 661.48-20.55 663.1-22.45 664.73-24.35 666.93-25.43 669.13-26.5 671.83-26.5L671.83-26.5Q675.18-26.5 677.65-24.8 680.13-23.1 681.83-20.6L681.83-20.6 681.83-26.05 684.88-26.05 684.88 0.1Q684.88 3.7 683.15 6.18 681.43 8.65 678.5 9.9 675.58 11.15 672.13 11.15L672.13 11.15Q667.68 11.15 664.93 9.55 662.18 7.95 660.43 5.25L660.43 5.25 662.53 3.6Q664.08 6.05 666.65 7.25 669.23 8.45 672.13 8.45L672.13 8.45Q674.68 8.45 676.8 7.53 678.93 6.6 680.2 4.75 681.48 2.9 681.48 0.1L681.48 0.1 681.48-5.05Q679.98-2.6 677.38-1.13 674.78 0.35 671.93 0.35ZM672.88-2.5L672.88-2.5Q674.43-2.5 675.85-3.05 677.28-3.6 678.48-4.53 679.68-5.45 680.48-6.6 681.28-7.75 681.48-8.95L681.48-8.95 681.48-17Q680.73-18.9 679.33-20.38 677.93-21.85 676.15-22.68 674.38-23.5 672.48-23.5L672.48-23.5Q670.28-23.5 668.55-22.58 666.83-21.65 665.65-20.13 664.48-18.6 663.83-16.7 663.18-14.8 663.18-12.9L663.18-12.9Q663.18-10.8 663.93-8.93 664.68-7.05 666-5.58 667.33-4.1 669.1-3.3 670.88-2.5 672.88-2.5ZM714.27-15.25L714.27 0 710.87 0 710.87-14.55Q710.87-19.15 709.52-21.28 708.17-23.4 705.27-23.4L705.27-23.4Q703.27-23.4 701.32-22.43 699.37-21.45 697.9-19.78 696.42-18.1 695.77-15.95L695.77-15.95 695.77 0 692.37 0 692.37-26.05 695.47-26.05 695.47-20.15Q696.52-22.05 698.22-23.48 699.92-24.9 702.07-25.7 704.22-26.5 706.52-26.5L706.52-26.5Q708.67-26.5 710.17-25.7 711.67-24.9 712.57-23.43 713.47-21.95 713.87-19.88 714.27-17.8 714.27-15.25L714.27-15.25ZM732.62 0.5L732.62 0.5Q729.82 0.5 727.45-0.58 725.07-1.65 723.35-3.53 721.62-5.4 720.67-7.83 719.72-10.25 719.72-12.95L719.72-12.95Q719.72-15.75 720.67-18.18 721.62-20.6 723.37-22.48 725.12-24.35 727.5-25.43 729.87-26.5 732.67-26.5L732.67-26.5Q735.47-26.5 737.82-25.43 740.17-24.35 741.92-22.48 743.67-20.6 744.62-18.18 745.57-15.75 745.57-12.95L745.57-12.95Q745.57-10.25 744.62-7.83 743.67-5.4 741.95-3.53 740.22-1.65 737.85-0.58 735.47 0.5 732.62 0.5ZM723.17-12.9L723.17-12.9Q723.17-10 724.45-7.63 725.72-5.25 727.87-3.88 730.02-2.5 732.62-2.5L732.62-2.5Q735.22-2.5 737.37-3.9 739.52-5.3 740.82-7.73 742.12-10.15 742.12-13L742.12-13Q742.12-15.9 740.82-18.3 739.52-20.7 737.37-22.1 735.22-23.5 732.62-23.5L732.62-23.5Q730.02-23.5 727.9-22.05 725.77-20.6 724.47-18.23 723.17-15.85 723.17-12.9ZM759.82 0.5L759.82 0.5Q756.62 0.5 753.87-0.55 751.12-1.6 749.12-3.75L749.12-3.75 750.52-6.15Q752.72-4.1 754.94-3.18 757.17-2.25 759.67-2.25L759.67-2.25Q762.72-2.25 764.62-3.48 766.52-4.7 766.52-7L766.52-7Q766.52-8.55 765.59-9.38 764.67-10.2 762.94-10.73 761.22-11.25 758.82-11.85L758.82-11.85Q756.12-12.6 754.29-13.43 752.47-14.25 751.54-15.53 750.62-16.8 750.62-18.85L750.62-18.85Q750.62-21.4 751.89-23.08 753.17-24.75 755.39-25.63 757.62-26.5 760.37-26.5L760.37-26.5Q763.37-26.5 765.67-25.55 767.97-24.6 769.42-22.9L769.42-22.9 767.77-20.6Q766.37-22.2 764.44-22.98 762.52-23.75 760.17-23.75L760.17-23.75Q758.57-23.75 757.12-23.33 755.67-22.9 754.74-21.93 753.82-20.95 753.82-19.25L753.82-19.25Q753.82-17.85 754.52-17.07 755.22-16.3 756.62-15.78 758.02-15.25 760.07-14.65L760.07-14.65Q763.02-13.85 765.22-13.03 767.42-12.2 768.62-10.9 769.82-9.6 769.82-7.25L769.82-7.25Q769.82-3.6 767.07-1.55 764.32 0.5 759.82 0.5ZM778.82 0L775.42 0 775.42-26.05 778.82-26.05 778.82 0ZM778.82-31.5L775.42-31.5 775.42-36.5 778.82-36.5 778.82-31.5ZM794.86 0.5L794.86 0.5Q791.66 0.5 788.91-0.55 786.16-1.6 784.16-3.75L784.16-3.75 785.56-6.15Q787.76-4.1 789.99-3.18 792.21-2.25 794.71-2.25L794.71-2.25Q797.76-2.25 799.66-3.48 801.56-4.7 801.56-7L801.56-7Q801.56-8.55 800.64-9.38 799.71-10.2 797.99-10.73 796.26-11.25 793.86-11.85L793.86-11.85Q791.16-12.6 789.34-13.43 787.51-14.25 786.59-15.53 785.66-16.8 785.66-18.85L785.66-18.85Q785.66-21.4 786.94-23.08 788.21-24.75 790.44-25.63 792.66-26.5 795.41-26.5L795.41-26.5Q798.41-26.5 800.71-25.55 803.01-24.6 804.46-22.9L804.46-22.9 802.81-20.6Q801.41-22.2 799.49-22.98 797.56-23.75 795.21-23.75L795.21-23.75Q793.61-23.75 792.16-23.33 790.71-22.9 789.79-21.93 788.86-20.95 788.86-19.25L788.86-19.25Q788.86-17.85 789.56-17.07 790.26-16.3 791.66-15.78 793.06-15.25 795.11-14.65L795.11-14.65Q798.06-13.85 800.26-13.03 802.46-12.2 803.66-10.9 804.86-9.6 804.86-7.25L804.86-7.25Q804.86-3.6 802.11-1.55 799.36 0.5 794.86 0.5ZM834.31 0.5L834.31 0.5Q831.51 0.5 829.13-0.58 826.76-1.65 825.03-3.53 823.31-5.4 822.36-7.83 821.41-10.25 821.41-12.95L821.41-12.95Q821.41-15.75 822.36-18.18 823.31-20.6 825.06-22.48 826.81-24.35 829.18-25.43 831.56-26.5 834.36-26.5L834.36-26.5Q837.16-26.5 839.51-25.43 841.86-24.35 843.61-22.48 845.36-20.6 846.31-18.18 847.26-15.75 847.26-12.95L847.26-12.95Q847.26-10.25 846.31-7.83 845.36-5.4 843.63-3.53 841.91-1.65 839.53-0.58 837.16 0.5 834.31 0.5ZM824.86-12.9L824.86-12.9Q824.86-10 826.13-7.63 827.41-5.25 829.56-3.88 831.71-2.5 834.31-2.5L834.31-2.5Q836.91-2.5 839.06-3.9 841.21-5.3 842.51-7.73 843.81-10.15 843.81-13L843.81-13Q843.81-15.9 842.51-18.3 841.21-20.7 839.06-22.1 836.91-23.5 834.31-23.5L834.31-23.5Q831.71-23.5 829.58-22.05 827.46-20.6 826.16-18.23 824.86-15.85 824.86-12.9ZM857.16 0L853.76 0 853.76-23.35 850.16-23.35 850.16-26.05 853.76-26.05 853.76-26.75Q853.76-29.95 854.68-32.25 855.61-34.55 857.33-35.77 859.06-37 861.41-37L861.41-37Q862.96-37 864.41-36.55 865.86-36.1 866.91-35.35L866.91-35.35 865.86-32.9Q865.21-33.45 864.16-33.75 863.11-34.05 862.06-34.05L862.06-34.05Q859.71-34.05 858.43-32.2 857.16-30.35 857.16-26.85L857.16-26.85 857.16-26.05 864.36-26.05 864.36-23.35 857.16-23.35 857.16 0ZM889.2 0.5L889.2 0.5Q886 0.5 883.25-0.55 880.5-1.6 878.5-3.75L878.5-3.75 879.9-6.15Q882.1-4.1 884.33-3.18 886.55-2.25 889.05-2.25L889.05-2.25Q892.1-2.25 894-3.48 895.9-4.7 895.9-7L895.9-7Q895.9-8.55 894.98-9.38 894.05-10.2 892.33-10.73 890.6-11.25 888.2-11.85L888.2-11.85Q885.5-12.6 883.68-13.43 881.85-14.25 880.93-15.53 880-16.8 880-18.85L880-18.85Q880-21.4 881.28-23.08 882.55-24.75 884.78-25.63 887-26.5 889.75-26.5L889.75-26.5Q892.75-26.5 895.05-25.55 897.35-24.6 898.8-22.9L898.8-22.9 897.15-20.6Q895.75-22.2 893.83-22.98 891.9-23.75 889.55-23.75L889.55-23.75Q887.95-23.75 886.5-23.33 885.05-22.9 884.13-21.93 883.2-20.95 883.2-19.25L883.2-19.25Q883.2-17.85 883.9-17.07 884.6-16.3 886-15.78 887.4-15.25 889.45-14.65L889.45-14.65Q892.4-13.85 894.6-13.03 896.8-12.2 898-10.9 899.2-9.6 899.2-7.25L899.2-7.25Q899.2-3.6 896.45-1.55 893.7 0.5 889.2 0.5Z" opacity="1" transform="matrix(1,0,0,1,0,0)" fill="#ffffff" class="slogan-text-1" data-fill-palette-color="secondary" id="text-1"></path></svg></g></svg></g></svg></g></svg></g><g transform="matrix(1,0,0,1,54.180021120621305,0)"><svg viewBox="0 0 83.63995775875739 83.63995775875739" height="83.63995775875739" width="83.63995775875739"><g><svg></svg></g><g id="icon-0"><svg viewBox="0 0 83.63995775875739 83.63995775875739" height="83.63995775875739" width="83.63995775875739"><g><path d="M0 41.82c0-23.097 18.723-41.82 41.82-41.82 23.097 0 41.82 18.723 41.82 41.82 0 23.097-18.723 41.82-41.82 41.82-23.097 0-41.82-18.723-41.82-41.82zM41.82 81.59c21.965 0 39.77-17.806 39.77-39.77 0-21.965-17.806-39.77-39.77-39.77-21.965 0-39.77 17.806-39.77 39.77 0 21.965 17.806 39.77 39.77 39.77z" data-fill-palette-color="accent" fill="#ffffff" stroke="transparent"></path><ellipse rx="41.40177909058491" ry="41.40177909058491" cx="41.819978879378695" cy="41.819978879378695" fill="#ffffff" stroke="transparent" stroke-width="0" fill-opacity="1" data-fill-palette-color="accent"></ellipse></g><g transform="matrix(1,0,0,1,17.8926665629342,17.893263149473107)"><svg viewBox="0 0 47.85462463288899 47.853431459811176" height="47.853431459811176" width="47.85462463288899"><g><svg xmlns="http://www.w3.org/2000/svg" xmlns:xlink="http://www.w3.org/1999/xlink" version="1.1" x="0" y="0" viewBox="9.951000213623047 9.944000244140625 79.86399841308594 79.86200714111328" enable-background="new 0 0 100 100" xml:space="preserve" height="47.853431459811176" width="47.85462463288899" class="icon-s-0" data-fill-palette-color="quaternary" id="s-0"><path fill="none" d="M50.857 78.341l1.237-56.924c0-1.408-1.069-2.053-2.062-2.053-0.993 0-2.062 0.645-2.062 2.062l1.237 55.669v1.247c0 1.138 0.425 1.753 0.825 1.753C50.432 80.094 50.857 79.48 50.857 78.341z"></path><path d="M63.193 36.565V9.944h-26.62v26.62H9.951v26.62h26.622v26.622h26.62V63.185h26.622v-26.62H63.193zM48.557 63.418l-0.171-7.706c0.508-1.284 1.508-2.058 2.663-2.82l-0.17 7.846c-0.276 0.789-0.72 1.479-1.439 2.06C49.126 62.995 48.835 63.203 48.557 63.418zM53.511 50.057c-0.724 0.724-1.577 1.275-2.401 1.809-1.765 1.142-3.585 2.321-3.868 5.126-1.599-1.398-1.688-3.683-1.688-4.168 0-1.309 1.418-2.341 2.919-3.435 1.918-1.397 4.092-2.98 4.092-5.639v-4.037c1.722 1.636 2.712 3.576 2.811 5.539C55.466 47.058 54.803 48.765 53.511 50.057zM51.205 45.684c-0.651 1.122-1.809 2.009-2.978 2.864l-0.41-18.415c0.226-0.073 0.456-0.144 0.686-0.213 1.25-0.375 2.635-0.791 3.085-1.876L51.205 45.684zM48.267 29.129c-1.326 0.397-2.696 0.807-3.167 1.944-0.321 0.775-0.157 1.748 0.513 2.99l1.179 1.964v4.346c-3.385-3.157-4.88-8.24-3.335-11.716l0.018-0.049c0.619-2.064 2.894-3.143 4.821-3.143 1.209 0 2.62 0.468 2.62 1.787C50.915 28.263 49.915 28.636 48.267 29.129zM47.621 71.868c-0.921-1.301-1.296-2.603-1.116-3.883 0.237-1.683 1.441-3.282 3.392-4.501l0.039-0.027c1.962-1.57 2.187-3.769 2.214-6.322 1.291 1.531 1.449 3.136 1.327 4.279-0.219 2.044-1.526 4.13-3.158 5.064C47.946 67.664 47.657 69.233 47.621 71.868zM52.325 76.213c-0.227 0.856-0.811 1.72-1.581 2.046 0.547-1.482 0.902-2.918 0.98-4.819C52.487 74.225 52.558 75.335 52.325 76.213zM49.678 19.005c0.993 0 2.062 0.645 2.062 2.053l-0.119 5.451c-0.373-1.141-1.614-1.867-3.326-1.867-0.197 0-0.397 0.014-0.599 0.034l-0.08-3.608C47.616 19.65 48.685 19.005 49.678 19.005zM49.678 79.735c-0.4 0-0.825-0.614-0.825-1.753v-1.247l-0.162-7.311c0.27-0.966 0.833-1.627 2.017-2.22 0.01-0.006 0.02-0.013 0.03-0.019l-0.193 8.9c-0.204 0.869-0.324 1.159-0.676 2.04 0 0-0.221 0.79-0.063 0.964 0.158 0.174 0.286 0.129 0.286 0.129 0.064 0 0.126-0.015 0.189-0.02C50.12 79.55 49.896 79.735 49.678 79.735z" fill="#000000" data-fill-palette-color="quaternary"></path><path d="M49.619 27.612C52.506 26.375 46.732 26.375 49.619 27.612z" fill="#000000" data-fill-palette-color="quaternary"></path></svg></g></svg></g></svg></g></svg></g><g></g></svg></g></svg></g></svg></g><defs></defs></svg><rect width="320" height="360" fill="none" stroke="none" visibility="hidden"></rect></g></svg></g></svg>